<svg width="342" height="512" xmlns="http://www.w3.org/2000/svg">
  <path d="M156.539 169.124c0-4.166 28.947-4.166 28.947 0 0 4.165-6.481 7.543-14.474 7.543s-14.473-3.378-14.473-7.543zM286.042 184c35.437 40.469 55.625 97.323 55.624 157.333 0 65.729-23.771 126.812-65.229 167.604a10.7 10.7 0 01-7.479 3.063H73.041a10.706 10.706 0 01-7.479-3.063C24.104 468.146.333 407.062.333 341.333c0-60.01 20.187-116.864 55.625-157.333C47.458 166.563 43 147.354 43 128 43 57.417 100.417 0 171 0s128 57.417 128 128c0 19.354-4.458 38.562-12.958 56zm-209.438 9.01c-11.4 12.012-21.027 26.008-29.073 41.22 26.071-15.873 54.923-27.008 78.831-33.835-24.321-15.051-40.695-41.752-40.695-72.395 0-47.052 38.272-85.333 85.334-85.333 47.062 0 85.333 38.281 85.333 85.333 0 30.644-16.373 57.344-40.695 72.395 23.908 6.827 52.759 17.961 78.831 33.835-8.046-15.211-17.673-29.207-29.073-41.219-3.23-3.396-3.855-8.511-1.563-12.594 9.041-16.011 13.833-34.146 13.833-52.417 0-58.812-47.853-106.668-106.666-106.668-58.813 0-106.667 47.854-106.667 106.667 0 18.271 4.791 36.407 13.833 52.417 2.291 4.084 1.666 9.198-1.563 12.594zM171 192c35.292 0 64-28.708 64.002-64 0-.333-.094-.642-.099-.974-7.68-.912-15.098-2.751-22.016-5.823-1.554 3.966-5.367 6.797-9.885 6.797-5.891 0-10.667-4.776-10.667-10.667 0-2.611 1.047-4.918 2.604-6.772-9.912-7.525-17.982-16.728-23.938-26.311-5.956 9.583-14.027 18.786-23.938 26.311 1.557 1.854 2.604 4.161 2.604 6.772 0 5.891-4.776 10.667-10.667 10.667-4.518 0-8.33-2.829-9.885-6.796-6.918 3.072-14.336 4.911-22.016 5.822-.005.332-.099.641-.099.974 0 35.292 28.708 64 64 64zm37.25 56.865c-5.958-15.834-17.375-35.532-37.25-35.532-19.625 0-31.062 19.615-37.125 35.438 13.875-6.823 26.458-16.136 26.458-24.771A10.66 10.66 0 01171 213.333 10.66 10.66 0 01181.667 224c0 8.709 12.666 18.052 26.583 24.865zm-96.84-143.736c22.093-5.393 39.067-24.072 45.701-39.514-21.038 4.685-38.081 19.738-45.701 39.514zm73.479-39.514c6.636 15.442 23.607 34.121 45.702 39.514-7.62-19.776-24.664-34.829-45.702-39.514zM32.115 271.728c-6.709 21.944-10.448 45.422-10.448 69.605h298.668c0-24.183-3.74-47.661-10.448-69.605-25.095-21.969-60.358-38.055-89.909-47.71 10.96 18.851 14.612 39.315 14.878 40.898a10.646 10.646 0 01-3.479 9.75 10.61 10.61 0 01-7.042 2.667c-1.021 0-2.063-.146-3.063-.448-4.486-1.35-34.039-10.786-50.271-28.497-16.232 17.711-45.785 27.147-50.271 28.497-1 .302-2.042.448-3.063.448-2.563 0-5.084-.927-7.042-2.667a10.646 10.646 0 01-3.479-9.75c.266-1.583 3.918-22.046 14.878-40.898-29.551 9.655-64.814 25.741-89.909 47.71zm232.406 218.939c31.151-32.257 50.574-77.871 54.886-128H22.594c4.311 50.129 23.734 95.743 54.885 128h187.042z" fill="#007aff" fill-rule="nonzero"/>
</svg>
