<svg width="35" height="23" xmlns="http://www.w3.org/2000/svg">
  <g transform="translate(-661 -1334)" fill="#007aff" fill-rule="nonzero">
    <path d="M689.637 1336.788h-22.774a.75.75 0 00-.752.747v11.284a.75.75 0 00.752.747.75.75 0 00.752-.747v-10.537h21.27v10.536a.75.75 0 00.752.748.75.75 0 00.752-.748v-11.283a.75.75 0 00-.752-.747z"/>
    <path d="M694.832 1351.75h-1.368v-15.517a2.241 2.241 0 00-2.244-2.233h-25.94a2.241 2.241 0 00-2.244 2.233v15.516h-1.368a.667.667 0 00-.668.665v1.306a3.292 3.292 0 003.297 3.28h27.906a3.292 3.292 0 003.297-3.28v-1.306a.666.666 0 00-.668-.665zm-30.311-15.517c0-.416.34-.755.76-.755h25.939c.419 0 .76.339.76.755v15.516h-10.054a.666.666 0 00-.687.665c0 .561-.459 1.018-1.023 1.018h-3.932a1.021 1.021 0 01-1.023-1.018.669.669 0 00-.684-.665h-10.056v-15.516zm29.643 17.487c0 1.075-.88 1.95-1.96 1.95h-27.907c-1.081 0-1.96-.875-1.96-1.95v-.64h11.684a2.362 2.362 0 002.263 1.682h3.932a2.362 2.362 0 002.263-1.683h11.685v.64z"/>
  </g>
</svg>
