<svg width="6" height="6" viewBox="0 0 6 6" fill="none" xmlns="http://www.w3.org/2000/svg">
<path d="M3.33147 3.00074L5.93136 0.400848C6.02289 0.309313 6.02289 0.160907 5.93136 0.0693836C5.83982 -0.0221396 5.69141 -0.0221513 5.59989 0.0693836L3 2.66928L0.400116 0.0693836C0.308581 -0.0221513 0.160175 -0.0221513 0.0686512 0.0693836C-0.022872 0.160919 -0.0228838 0.309325 0.0686512 0.400848L2.66853 3.00073L0.0686512 5.60062C-0.0228838 5.69216 -0.0228838 5.84056 0.0686512 5.93209C0.114413 5.97785 0.174401 6.00072 0.234389 6.00072C0.294377 6.00072 0.354354 5.97785 0.400127 5.93209L3 3.3322L5.59988 5.93209C5.64564 5.97785 5.70563 6.00072 5.76562 6.00072C5.82561 6.00072 5.88558 5.97785 5.93136 5.93209C6.02289 5.84055 6.02289 5.69215 5.93136 5.60062L3.33147 3.00074Z" fill="#717171"/>
</svg>
