<svg width="30" height="30" viewBox="0 0 30 30" fill="none" xmlns="http://www.w3.org/2000/svg">
<path d="M15 30C23.2843 30 30 23.2843 30 15C30 6.71573 23.2843 0 15 0C6.71573 0 0 6.71573 0 15C0 23.2843 6.71573 30 15 30Z" fill="#FFCA0F"/>
<path d="M21 9H9C8.175 9 7.5075 9.675 7.5075 10.5L7.5 19.5C7.5 20.325 8.175 21 9 21H21C21.825 21 22.5 20.325 22.5 19.5V10.5C22.5 9.675 21.825 9 21 9ZM20.25 19.5H9.75C9.3375 19.5 9 19.1625 9 18.75V12L14.205 15.255C14.6925 15.5625 15.3075 15.5625 15.795 15.255L21 12V18.75C21 19.1625 20.6625 19.5 20.25 19.5ZM15 14.25L9 10.5H21L15 14.25Z" fill="white"/>
</svg>
